<?xml version="1.0" encoding="utf-8"?>
<!-- Generator: Adobe Illustrator 25.1.0, SVG Export Plug-In . SVG Version: 6.00 Build 0)  -->
<svg version="1.1" id="Layer_1" xmlns="http://www.w3.org/2000/svg" xmlns:xlink="http://www.w3.org/1999/xlink" x="0px" y="0px"
	 viewBox="0 0 36 36" style="enable-background:new 0 0 36 36;" xml:space="preserve">
<style type="text/css">
	.st0{fill:#F8F6F2;}
</style>
<g>
	<path class="st0" d="M16.4,20.4L0,11v5l16.4,9.4c1,0.6,2.3,0.6,3.3,0L36,16v-5l-16.4,9.4C18.6,21,17.4,21,16.4,20.4z"/>
	<path class="st0" d="M16.4,27.6L0,18.2v5l16.4,9.4c1,0.6,2.3,0.6,3.3,0L36,23.1v-5l-16.4,9.4C18.6,28.2,17.4,28.2,16.4,27.6z"/>
	<path class="st0" d="M19.6,3.4C19.1,3.1,18.6,3,18,3v2.7c0.6,0,1.1,0.1,1.6,0.4l6.9,4l2.4-1.4L19.6,3.4L19.6,3.4z"/>
	<path class="st0" d="M16.4,3.4L7.1,8.8l2.4,1.4l6.9-4c0.5-0.3,1.1-0.4,1.6-0.4V3C17.4,3,16.9,3.1,16.4,3.4L16.4,3.4z"/>
</g>
</svg>
