<?xml version="1.0" encoding="utf-8"?>
<!-- Generator: Adobe Illustrator 25.1.0, SVG Export Plug-In . SVG Version: 6.00 Build 0)  -->
<svg version="1.1" id="Layer_1" xmlns="http://www.w3.org/2000/svg" xmlns:xlink="http://www.w3.org/1999/xlink" x="0px" y="0px"
	 viewBox="0 0 700 700" style="enable-background:new 0 0 700 700;" xml:space="preserve">
<g transform="translate(0.000000,700.000000) scale(0.100000,-0.100000)">
	<path d="M3365,6403.3c-33-8-78-22-100-31c-33-14-223-119-358-199c-46-27-563-324-616-354c-25-14-68-38-95-55c-28-17-60-35-71-41
		s-183-105-382-220c-292-168-361-212-352-223c6-7,15-13,20-13s54-27,110-60c55-33,102-60,104-60s49-27,105-60l102-60l97,56
		c53,31,116,68,141,82s128,73,230,132s205,118,230,132s189,108,365,210c176,101,345,194,375,206c148,59,330,57,476-4
		c21-9,99-51,174-94c74-43,151-87,170-97c19-11,76-44,125-73c50-29,108-63,130-75c22-13,128-74,235-135c436-252,526-304,556-321
		c27-15,35-15,55-4c23,12,70,39,314,180c55,31,104,61,108,65c5,4-26,28-70,52c-43,25-170,98-283,163s-214,123-225,129s-31,18-45,27
		s-169,98-345,199s-430,247-565,325c-287,167-327,187-400,209C3604,6414.3,3440,6420.3,3365,6403.3z"/>
	<path d="M0,4375.3v-483l103-58c116-65,119-67,246-142c52-30,96-55,98-55s79-44,171-98s174-101,182-105s29-15,45-25
		c17-10,50-30,75-44s86-49,135-78c50-29,108-62,130-75c22-12,186-107,365-210s339-195,355-205c17-9,176-102,355-205s345-199,370-213
		c25-13,70-39,100-57s71-42,90-53s122-70,229-131c233-133,287-153,434-157c170-4,242,22,535,195c57,34,106,61,108,61
		c3,0,29,16,59,35s76,46,102,60s55,30,63,35c8,6,71,42,140,81c69,40,184,106,255,147c72,41,202,116,290,167s205,118,260,150
		s114,66,130,75c17,9,179,103,360,207c182,105,346,200,365,210c19,11,114,66,210,121c96,56,279,161,407,234l232,133l1,484v483
		l-22-14c-13-8-50-30-83-48s-64-36-70-40c-5-4-28-18-50-30c-40-22-489-281-930-535c-126-73-252-145-280-160c-27-15-54-31-60-35
		c-5-5-33-21-61-37c-58-32-332-190-354-204c-15-9-281-162-355-204c-22-13-107-62-189-109s-151-86-153-86c-3,0-23-13-46-28
		s-53-33-67-40c-14-6-32-16-40-22c-36-24-391-226-450-255c-124-63-248-84-384-64c-97,13-174,47-380,167c-100,57-210,120-246,140
		c-36,19-69,38-75,42c-8,7-580,338-1050,608c-71,41-144,82-161,92c-16,10-68,39-115,66c-46,26-112,65-146,86s-65,38-67,38
		s-49,27-104,59c-55,32-124,72-154,89c-39,21-846,486-900,519C3,4856.3,0,4641.3,0,4375.3z"/>
	<path d="M0,2983.3v-482l37-21c81-45,119-67,458-263c193-111,366-211,385-221c32-18,64-37,155-90c17-10,68-40,115-66
		c47-27,172-100,279-161c107-62,198-112,202-112c5,0,9-4,9-10c0-5,4-10,10-10c5,0,47-22,92-49c46-27,99-57,118-68s274-157,565-325
		c292-168,546-315,565-325c19-11,76-44,125-73c112-65,163-87,244-106c76-18,214-19,274-3c23,6,49,13,57,14c41,9,421,218,664,366
		c17,10,37,22,45,25c15,8,65,36,406,234c127,73,239,138,250,144c45,26,248,142,273,157c15,9,162,94,327,189c373,215,361,208,415,238
		c25,14,77,45,117,69c39,23,74,43,77,43c4,0,25,12,49,27c23,15,63,39,88,53s171,97,323,185l276,159v482v482l-277-160
		c-349-201-998-575-1038-598c-62-36-379-218-630-363c-313-181-627-362-675-389c-19-11-64-37-100-58s-82-47-103-59s-108-62-193-112
		c-191-111-261-144-343-163c-129-29-305-10-413,45c-24,12-158,88-298,169c-293,169-536,309-565,324c-11,6-51,30-90,53
		c-38,23-232,135-430,249s-481,277-630,362c-148,86-292,169-320,184c-27,16-57,33-65,38s-118,69-245,141c-126,72-247,142-267,155
		c-21,13-39,24-42,24c-2,0-65,36-140,79l-136,80V2983.3z"/>
</g>
</svg>
